# Goxel 0.7.1
v -1.5 -2.5 0.5 1.000000 1.000000 1.000000
v -0.5 -2.5 0.5 1.000000 1.000000 1.000000
v -0.5 -2.5 1.5 1.000000 1.000000 1.000000
v -1.5 -2.5 1.5 1.000000 1.000000 1.000000
v -1.5 -1.5 0.5 1.000000 1.000000 1.000000
v -0.5 -1.5 0.5 1.000000 1.000000 1.000000
v -0.5 -1.5 1.5 1.000000 1.000000 1.000000
v -1.5 -1.5 1.5 1.000000 1.000000 1.000000
v 0.5 -2.5 0.5 1.000000 1.000000 1.000000
v 0.5 -2.5 1.5 1.000000 1.000000 1.000000
v 0.5 -1.5 0.5 1.000000 1.000000 1.000000
v 0.5 -1.5 1.5 1.000000 1.000000 1.000000
v -1.5 -0.5 0.5 1.000000 1.000000 1.000000
v -0.5 -0.5 0.5 1.000000 1.000000 1.000000
v -0.5 -0.5 1.5 1.000000 1.000000 1.000000
v -1.5 -0.5 1.5 1.000000 1.000000 1.000000
v 0.5 -0.5 0.5 1.000000 1.000000 1.000000
v 0.5 -0.5 1.5 1.000000 1.000000 1.000000
v 2.5 -1.5 0.5 1.000000 1.000000 1.000000
v 3.5 -1.5 0.5 1.000000 1.000000 1.000000
v 3.5 -1.5 1.5 1.000000 1.000000 1.000000
v 2.5 -1.5 1.5 1.000000 1.000000 1.000000
v 2.5 -0.5 0.5 1.000000 1.000000 1.000000
v 3.5 -0.5 0.5 1.000000 1.000000 1.000000
v 3.5 -0.5 1.5 1.000000 1.000000 1.000000
v 2.5 -0.5 1.5 1.000000 1.000000 1.000000
v -3.5 -0.5 0.5 1.000000 1.000000 1.000000
v -2.5 -0.5 0.5 1.000000 1.000000 1.000000
v -2.5 -0.5 1.5 1.000000 1.000000 1.000000
v -3.5 -0.5 1.5 1.000000 1.000000 1.000000
v -3.5 0.5 0.5 1.000000 1.000000 1.000000
v -2.5 0.5 0.5 1.000000 1.000000 1.000000
v -3.5 0.5 1.5 1.000000 1.000000 1.000000
v -1.5 0.5 0.5 1.000000 1.000000 1.000000
v -0.5 0.5 0.5 1.000000 1.000000 1.000000
v 0.5 0.5 0.5 1.000000 1.000000 1.000000
v 1.5 -0.5 0.5 1.000000 1.000000 1.000000
v 1.5 -0.5 1.5 1.000000 1.000000 1.000000
v 1.5 0.5 0.5 1.000000 1.000000 1.000000
v 2.5 0.5 0.5 1.000000 1.000000 1.000000
v 3.5 0.5 0.5 1.000000 1.000000 1.000000
v 3.5 0.5 1.5 1.000000 1.000000 1.000000
v 2.5 0.5 1.5 1.000000 1.000000 1.000000
v -2.5 1.5 0.5 1.000000 1.000000 1.000000
v -3.5 1.5 0.5 1.000000 1.000000 1.000000
v -3.5 1.5 1.5 1.000000 1.000000 1.000000
v -2.5 1.5 1.5 1.000000 1.000000 1.000000
v -1.5 1.5 0.5 1.000000 1.000000 1.000000
v -1.5 1.5 1.5 1.000000 1.000000 1.000000
v -0.5 1.5 0.5 1.000000 1.000000 1.000000
v 0.5 1.5 0.5 1.000000 1.000000 1.000000
v 1.5 1.5 0.5 1.000000 1.000000 1.000000
v 0.5 1.5 1.5 1.000000 1.000000 1.000000
v 1.5 1.5 1.5 1.000000 1.000000 1.000000
v 2.5 1.5 0.5 1.000000 1.000000 1.000000
v 2.5 1.5 1.5 1.000000 1.000000 1.000000
v 3.5 1.5 0.5 1.000000 1.000000 1.000000
v 3.5 1.5 1.5 1.000000 1.000000 1.000000
v -1.5 2.5 0.5 1.000000 1.000000 1.000000
v -0.5 2.5 0.5 1.000000 1.000000 1.000000
v -0.5 1.5 1.5 1.000000 1.000000 1.000000
v -0.5 2.5 1.5 1.000000 1.000000 1.000000
v -1.5 2.5 1.5 1.000000 1.000000 1.000000
v 0.5 2.5 0.5 1.000000 1.000000 1.000000
v 0.5 2.5 1.5 1.000000 1.000000 1.000000
v 3.5 2.5 0.5 1.000000 1.000000 1.000000
v 2.5 2.5 0.5 1.000000 1.000000 1.000000
v 2.5 2.5 1.5 1.000000 1.000000 1.000000
v 3.5 2.5 1.5 1.000000 1.000000 1.000000
v -0.5 3.5 0.5 1.000000 1.000000 1.000000
v -1.5 3.5 0.5 1.000000 1.000000 1.000000
v -1.5 3.5 1.5 1.000000 1.000000 1.000000
v -0.5 3.5 1.5 1.000000 1.000000 1.000000
v 0.5 3.5 0.5 1.000000 1.000000 1.000000
v 0.5 3.5 1.5 1.000000 1.000000 1.000000
v -2.5 -0.5 2.5 1.000000 1.000000 1.000000
v -3.5 -0.5 2.5 1.000000 1.000000 1.000000
v -2.5 0.5 2.5 1.000000 1.000000 1.000000
v -3.5 0.5 2.5 1.000000 1.000000 1.000000
v -1.5 -0.5 2.5 1.000000 1.000000 1.000000
v -1.5 0.5 2.5 1.000000 1.000000 1.000000
v -0.5 -0.5 2.5 1.000000 1.000000 1.000000
v -0.5 0.5 2.5 1.000000 1.000000 1.000000
v 0.5 -0.5 2.5 1.000000 1.000000 1.000000
v 0.5 0.5 2.5 1.000000 1.000000 1.000000
v 1.5 -0.5 2.5 1.000000 1.000000 1.000000
v 1.5 0.5 2.5 1.000000 1.000000 1.000000
v 2.5 -0.5 2.5 1.000000 1.000000 1.000000
v 2.5 0.5 2.5 1.000000 1.000000 1.000000
v -3.5 1.5 2.5 1.000000 1.000000 1.000000
v -2.5 1.5 2.5 1.000000 1.000000 1.000000
v -1.5 1.5 2.5 1.000000 1.000000 1.000000
v -0.5 1.5 2.5 1.000000 1.000000 1.000000
v 0.5 1.5 2.5 1.000000 1.000000 1.000000
v 1.5 1.5 2.5 1.000000 1.000000 1.000000
v 2.5 1.5 2.5 1.000000 1.000000 1.000000
vn 0 -1 0
vn 0 0 -1
vn 0 0 1
vn -1 0 0
vn 1 0 0
vn 0 1 0
f 1//1 2//1 3//1 4//1
f 1//2 5//2 6//2 2//2
f 3//3 7//3 8//3 4//3
f 1//4 4//4 8//4 5//4
f 2//1 9//1 10//1 3//1
f 2//2 6//2 11//2 9//2
f 10//3 12//3 7//3 3//3
f 9//5 11//5 12//5 10//5
f 5//2 13//2 14//2 6//2
f 7//3 15//3 16//3 8//3
f 5//4 8//4 16//4 13//4
f 6//2 14//2 17//2 11//2
f 12//3 18//3 15//3 7//3
f 11//5 17//5 18//5 12//5
f 19//1 20//1 21//1 22//1
f 19//2 23//2 24//2 20//2
f 21//3 25//3 26//3 22//3
f 20//5 24//5 25//5 21//5
f 19//4 22//4 26//4 23//4
f 27//1 28//1 29//1 30//1
f 27//2 31//2 32//2 28//2
f 27//4 30//4 33//4 31//4
f 28//1 13//1 16//1 29//1
f 28//2 32//2 34//2 13//2
f 13//2 34//2 35//2 14//2
f 14//2 35//2 36//2 17//2
f 17//1 37//1 38//1 18//1
f 17//2 36//2 39//2 37//2
f 37//1 23//1 26//1 38//1
f 37//2 39//2 40//2 23//2
f 23//2 40//2 41//2 24//2
f 25//3 42//3 43//3 26//3
f 24//5 41//5 42//5 25//5
f 44//6 45//6 46//6 47//6
f 31//2 45//2 44//2 32//2
f 31//4 33//4 46//4 45//4
f 48//6 44//6 47//6 49//6
f 32//2 44//2 48//2 34//2
f 34//2 48//2 50//2 35//2
f 35//2 50//2 51//2 36//2
f 52//6 51//6 53//6 54//6
f 36//2 51//2 52//2 39//2
f 55//6 52//6 54//6 56//6
f 39//2 52//2 55//2 40//2
f 40//2 55//2 57//2 41//2
f 42//3 58//3 56//3 43//3
f 41//5 57//5 58//5 42//5
f 48//2 59//2 60//2 50//2
f 61//3 62//3 63//3 49//3
f 48//4 49//4 63//4 59//4
f 50//2 60//2 64//2 51//2
f 53//3 65//3 62//3 61//3
f 51//5 64//5 65//5 53//5
f 66//6 67//6 68//6 69//6
f 55//2 67//2 66//2 57//2
f 58//3 69//3 68//3 56//3
f 57//5 66//5 69//5 58//5
f 55//4 56//4 68//4 67//4
f 70//6 71//6 72//6 73//6
f 59//2 71//2 70//2 60//2
f 62//3 73//3 72//3 63//3
f 59//4 63//4 72//4 71//4
f 74//6 70//6 73//6 75//6
f 60//2 70//2 74//2 64//2
f 65//3 75//3 73//3 62//3
f 64//5 74//5 75//5 65//5
f 30//1 29//1 76//1 77//1
f 76//3 78//3 79//3 77//3
f 30//4 77//4 79//4 33//4
f 29//1 16//1 80//1 76//1
f 80//3 81//3 78//3 76//3
f 16//1 15//1 82//1 80//1
f 82//3 83//3 81//3 80//3
f 15//1 18//1 84//1 82//1
f 84//3 85//3 83//3 82//3
f 18//1 38//1 86//1 84//1
f 86//3 87//3 85//3 84//3
f 38//1 26//1 88//1 86//1
f 88//3 89//3 87//3 86//3
f 26//5 43//5 89//5 88//5
f 47//6 46//6 90//6 91//6
f 78//3 91//3 90//3 79//3
f 33//4 79//4 90//4 46//4
f 49//6 47//6 91//6 92//6
f 81//3 92//3 91//3 78//3
f 61//6 49//6 92//6 93//6
f 83//3 93//3 92//3 81//3
f 53//6 61//6 93//6 94//6
f 85//3 94//3 93//3 83//3
f 54//6 53//6 94//6 95//6
f 87//3 95//3 94//3 85//3
f 56//6 54//6 95//6 96//6
f 89//3 96//3 95//3 87//3
f 43//5 56//5 96//5 89//5
